<svg width="2115" height="1098" viewBox="0 0 2115 1098" fill="none" xmlns="http://www.w3.org/2000/svg">
<path fill-rule="evenodd" clip-rule="evenodd" d="M1243.15 187.436C1243.15 290.868 1159.3 374.715 1055.87 374.715C952.436 374.715 868.588 290.868 868.588 187.436C868.588 84.0048 952.436 0.157043 1055.87 0.157043C1159.3 0.157043 1243.15 84.0048 1243.15 187.436ZM494.029 268.16C422.993 245.557 348.727 229.412 274.461 222.954C214.069 218.641 152.235 220.09 90.8864 221.528H90.8862L90.8848 221.528C60.3915 222.242 30.0178 222.954 0 222.954V281.075C0 733.129 364.871 1098 816.925 1098H1026.81V1094.77V975.3V781.563C1039.72 507.102 710.369 342.425 494.029 268.16ZM1837.27 222.954C1763.01 229.412 1688.74 245.557 1617.7 268.16C1401.36 342.425 1072.01 507.102 1088.16 778.334V972.071V1091.54V1094.77H1298.04C1750.09 1094.77 2114.96 729.9 2114.96 277.846V222.954C2083.63 222.954 2052.29 222.231 2021.08 221.511C1959.02 220.079 1897.43 218.657 1837.27 222.954Z" fill="white"/>
</svg>
